<svg xmlns="http://www.w3.org/2000/svg" viewBox="0 0 512 512" id="checklist"><path d="M97.766 157.286v38.807c0 11.472 9.333 20.805 20.805 20.805h38.808c11.472 0 20.805-9.333 20.805-20.805V171.62l22.959-20.835a8 8 0 0 0-10.752-11.848l-13.21 11.988c-2.695-8.369-10.548-14.444-19.801-14.444h-38.81c-11.471-.001-20.804 9.332-20.804 20.805zm64.417 0v7.248l-11.912 10.81-13.452-13.453a8 8 0 0 0-11.314 11.314l18.842 18.842a7.981 7.981 0 0 0 5.658 2.343 7.97 7.97 0 0 0 5.375-2.076l6.804-6.174v9.953c0 2.604-2.2 4.805-4.805 4.805H118.57c-2.604 0-4.805-2.2-4.805-4.805v-38.807c0-2.604 2.2-4.806 4.805-4.806h38.808c2.604 0 4.805 2.202 4.805 4.806zm28.207 90.493-13.21 11.988c-2.695-8.369-10.548-14.444-19.801-14.444H118.57c-11.472 0-20.805 9.333-20.805 20.806v38.807c0 11.473 9.333 20.806 20.805 20.806h38.808c11.472 0 20.805-9.333 20.805-20.806v-24.473l22.959-20.835a7.999 7.999 0 0 0 .548-11.3 8 8 0 0 0-11.3-.549zm-28.207 57.157c0 2.604-2.2 4.806-4.805 4.806H118.57c-2.604 0-4.805-2.201-4.805-4.806v-38.807c0-2.604 2.2-4.806 4.805-4.806h38.808c2.604 0 4.805 2.201 4.805 4.806v7.248l-11.912 10.81-13.452-13.453a8 8 0 0 0-11.314 11.314l18.842 18.842a7.981 7.981 0 0 0 5.658 2.343 7.97 7.97 0 0 0 5.375-2.076l6.804-6.174v9.953zm28.207 51.686-13.21 11.988c-2.695-8.369-10.548-14.444-19.801-14.444H118.57c-11.472 0-20.805 9.333-20.805 20.806v38.807c0 11.472 9.333 20.805 20.805 20.805h38.808c11.472 0 20.805-9.333 20.805-20.805v-24.473l22.959-20.835a7.999 7.999 0 0 0 .548-11.3 7.998 7.998 0 0 0-11.3-.549zm-28.207 57.156c0 2.604-2.2 4.805-4.805 4.805H118.57c-2.604 0-4.805-2.2-4.805-4.805v-38.807c0-2.604 2.2-4.806 4.805-4.806h38.808c2.604 0 4.805 2.201 4.805 4.806v7.248l-11.912 10.81-13.452-13.453a8 8 0 0 0-11.314 11.314l18.842 18.842a7.981 7.981 0 0 0 5.658 2.343 7.97 7.97 0 0 0 5.375-2.076l6.804-6.174v9.953zm66.509-374.787c0 5.508-4.493 10-10 10-5.508 0-10-4.492-10-10s4.493-10 10-10 10 4.492 10 10zM480 94.394l-7.472-4.314c-14.121-8.154-32.242-3.298-40.394 10.823l-11.975 20.741V72.588c0-16.673-13.564-30.237-30.238-30.237h-77.615V36.91a8 8 0 0 0-8-8h-43.022C254.467 11.611 237.76 0 218.691 0S182.917 11.611 176.1 28.909h-43.023a8 8 0 0 0-8 8v5.441H47.462c-16.674 0-30.238 13.564-30.238 30.237v409.175c0 16.673 13.564 30.237 30.238 30.237h342.46c16.674 0 30.238-13.564 30.238-30.237V257.18l70.663-122.393c8.154-14.121 3.298-32.241-10.823-40.393zm-34.01 14.508c3.104-5.374 9.347-7.81 15.084-6.359l-112.103 194.17-8.561-4.942 105.58-182.869zM337.483 308.555l20.834 12.029-20.834 12.028v-24.057zm52.439-250.204c7.851 0 14.238 6.387 14.238 14.237v76.768l-14.936 25.869V81.286a8 8 0 0 0-8-8h-68.918V58.351h77.616zM141.076 44.909h40.867a8 8 0 0 0 7.777-6.124C192.956 25.369 204.869 16 218.691 16c13.823 0 25.736 9.369 28.972 22.785a8 8 0 0 0 7.777 6.124h40.866v41.817h-155.23V44.909zm163.231 57.818a8 8 0 0 0 8-8v-5.44h60.918v113.652L322.556 290.7a8.002 8.002 0 0 0-1.072 4v51.77a7.998 7.998 0 0 0 12 6.928l39.741-22.944v134.612H64.159V89.286h60.917v5.44a8 8 0 0 0 8 8h171.231zm99.853 379.036c0 7.851-6.388 14.237-14.238 14.237H47.462c-7.851 0-14.238-6.387-14.238-14.237V72.588c0-7.851 6.388-14.237 14.238-14.237h77.614v14.936H56.159a8 8 0 0 0-8 8v391.778a8 8 0 0 0 8 8h325.065a8 8 0 0 0 8-8V310.763l14.936-25.869v196.869zm72.808-354.976L371.389 309.656l-8.562-4.943 112.104-194.169c4.127 4.244 5.138 10.87 2.037 16.243zm-261.387 67.34a8 8 0 0 1 8-8h45.75a8 8 0 0 1 0 16h-45.75a8 8 0 0 1-8-8zm0-34.875a8 8 0 0 1 8-8h91.5a8 8 0 0 1 0 16h-91.5a8 8 0 0 1-8-8zm0 132.654a8 8 0 0 1 8-8h45.75a8 8 0 0 1 0 16h-45.75a8 8 0 0 1-8-8zm0-34.875a8 8 0 0 1 8-8h91.5a8 8 0 0 1 0 16h-91.5a8 8 0 0 1-8-8zm0 154.782a8 8 0 0 1 8-8h45.75a8 8 0 0 1 0 16h-45.75c-4.418 0-8-3.583-8-8zm0-34.875a8 8 0 0 1 8-8h91.5a8 8 0 0 1 0 16h-91.5c-4.418 0-8-3.583-8-8z"></path></svg>